<svg width="220" height="220" viewBox="0 0 220 220" fill="none" xmlns="http://www.w3.org/2000/svg">
<path fill-rule="evenodd" clip-rule="evenodd" d="M0.962866 0.0857227C15.2861 -0.14665 29.5665 0.0934045 43.805 0.805885C102.292 59.139 160.779 117.472 219.265 175.805C219.819 183.044 220.06 190.326 219.988 197.65C219.906 204.612 219.829 211.573 219.747 218.535C219.506 218.775 219.265 219.015 219.025 219.255C205.065 219.575 191.105 219.575 177.145 219.255C118.177 160.442 59.209 101.629 0.240807 42.8154C-0.0802689 28.8922 -0.0802689 14.9691 0.240807 1.04594C0.585951 0.78476 0.826638 0.464528 0.962866 0.0857227Z" fill="white"/>
<path fill-rule="evenodd" clip-rule="evenodd" d="M87.9265 0.0372657C131.47 -0.0620846 175.013 0.0372656 218.555 0.334722C218.854 0.632178 219.152 0.929633 219.45 1.22709C219.945 44.6795 219.844 88.108 219.152 131.513C218.007 132.192 216.814 132.291 215.573 131.81C172.925 89.274 130.276 46.7378 87.6282 4.20165C87.2089 2.75661 87.3079 1.36868 87.9265 0.0372657Z" fill="white"/>
<path fill-rule="evenodd" clip-rule="evenodd" d="M1.18765 87.9303C2.46719 87.8545 3.65469 88.1506 4.75017 88.8186C47.0057 130.963 89.2607 173.107 131.516 215.252C132.766 216.739 132.667 218.12 131.219 219.397C87.8992 220.086 44.5553 220.185 1.18765 219.693C0.890777 219.397 0.593901 219.101 0.297024 218.805C-0.0990082 175.575 -0.0990082 132.345 0.297024 89.1147C0.722745 88.7925 1.01962 88.3975 1.18765 87.9303Z" fill="white"/>
</svg>
